<svg width="113" height="100" viewBox="0 0 113 100" fill="none" xmlns="http://www.w3.org/2000/svg">
<g id="Frame 1">
<rect width="113" height="100" fill="white"/>
<path id="Vector" d="M95.5981 53.8116C96.1367 55.0376 96.1452 56.3503 97.3784 57.4867C98.2864 55.4317 97.7886 53.6106 97.4499 51.9159C95.0017 39.6678 85.313 29.9352 72.6456 27.6956C58.4133 25.1795 46.3935 29.4452 37.6746 41.2089C31.336 49.7609 29.8378 59.4252 32.8525 69.6954C33.1582 70.7368 33.2893 71.5863 32.5903 72.5739C26.6929 80.9062 19.1536 86.7739 8.85658 88.5349C7.10592 88.8343 5.32359 88.9438 3.56299 89.1916C2.62705 89.3232 1.18446 88.7642 1.01061 90.1872C0.864816 91.3804 2.25492 91.486 3.10286 91.7725C11.2857 94.537 19.2664 93.9508 27.0777 90.3069C31.2179 88.3757 34.8034 85.6684 38.2961 82.3956C39.825 84.873 41.3823 87.0897 43.3064 89.0398C51.1748 97.0145 64.9598 100.029 75.351 95.961C79.697 94.2595 83.0534 91.2865 85.8268 87.6094C87.6834 85.1477 89.409 82.5829 91.344 80.1859C93.505 77.5091 96.3913 76.0274 99.8408 75.7073C100.247 75.6697 100.658 75.6344 101.063 75.6552C101.322 75.6684 101.574 75.7871 101.879 75.8723C96.9847 80.253 95.6423 85.096 98.0494 89.496C99.711 92.5332 102.624 94.0093 105.913 93.0674C100.658 91.6709 98.5022 88.3381 100.006 83.6375C101.729 78.2494 106.204 77.9729 110.911 79.2618C111.255 78.0368 110.527 77.4874 110.033 76.8835C104.891 70.592 95.9033 69.4292 89.1252 74.1552C86.6208 75.9014 84.6352 78.1589 82.7464 80.5252C80.9503 82.7754 79.0769 84.9448 76.8664 86.831C75.5572 87.948 74.7289 87.7668 73.6383 86.5797C71.0277 83.7385 69.8687 80.2667 69.0351 76.6289C67.8092 71.279 68.2703 66.1498 71.0879 61.3412C73.9638 56.433 80.1203 53.2461 86.0568 58.0558C86.3224 58.271 86.6034 58.4703 86.8924 58.653C87.3825 58.9629 87.9264 59.1452 88.4092 58.7138C88.9241 58.2538 88.6913 57.7086 88.3985 57.2203C83.9498 49.8035 78.0584 44.1017 69.1984 42.7415C58.8165 41.1475 51.0599 45.8939 44.9073 53.8439C42.3431 57.1572 40.1769 60.7372 37.9785 64.2953C37.4885 65.0883 37.1381 65.9972 36.3225 66.6126C34.8559 56.3451 41.1331 40.492 57.5384 35.3569C73.1432 30.4723 89.3248 38.2993 95.5981 53.8116ZM68.8529 57.1178C64.1892 61.7423 62.5303 67.6553 62.1587 73.9073C61.7667 80.502 64.3667 85.9627 70.0661 90.0404C65.9444 91.093 62.2148 91.086 58.4781 90.403C52.0943 89.2363 46.5583 86.4425 42.0732 81.6927C41.2559 80.8272 40.5003 80.0251 41.6147 78.7211C45.5871 74.0727 48.7641 68.8543 52.1527 63.7865C54.3241 60.5391 56.5752 57.3381 59.6973 54.8857C64.1701 51.3724 71.0051 50.2815 76.0207 52.9172C73.2929 53.6984 70.9618 54.9462 68.8529 57.1178Z" fill="black"/>
</g>
</svg>
